<svg viewBox="0 0 100 100" xmlns="http://www.w3.org/2000/svg">
  <rect width="100" height="100" rx="32" fill="#0A0A0A"/>
  <path d="M28.2 38.4q5.2 0 7.6 3t1.5 8a15 15 0 0 1-1.4 4.7 14 14 0 0 1-2.8 4 10 10 0 0 1-4.7 3 22 22 0 0 1-5.3.5h-5.3L16.2 70H10l6.3-31.6zm52.5 0q5.3 0 7.5 3 2.4 3 1.6 8a15 15 0 0 1-1.4 4.7 14 14 0 0 1-2.8 4 10 10 0 0 1-4.7 3 22 22 0 0 1-5.3.5h-5.3L68.6 70h-6.1l6.3-31.6zM50.4 30l-1.7 8.4h5.5q4.5 0 6.7 1.9 2.3 1.7 1.4 6.7l-3 14.6H53l2.8-14q.4-2.1-.2-3.1t-3.1-1h-5L44 61.6h-6.2L44.3 30zm-27 13.4h-1.9l-2.6 13.3H20q4.2 0 7-.8 3-1 3.9-6.5.8-4.5-1.6-5.3a20 20 0 0 0-5.9-.7m52.5 0h-2l-2.6 13.3h1.2q4.3 0 7-.8 3-1 3.9-6.5.8-4.5-1.6-5.3a20 20 0 0 0-5.9-.7" fill="#fff"/>
</svg>
