<svg height="32" viewBox="0 0 32 32" width="32" xmlns="http://www.w3.org/2000/svg"><path d="m9.349 13.609h-1.261l-.687 3.531h1.12c.739 0 1.291-.14 1.656-.421.359-.276.604-.745.729-1.396.124-.625.067-1.068-.161-1.328-.235-.255-.699-.385-1.396-.385zm6.651-6.025c-8.839 0-16 3.771-16 8.416s7.161 8.416 16 8.416 16-3.771 16-8.416-7.161-8.416-16-8.416zm-4.349 9.937c-.344.333-.765.583-1.219.733-.448.141-1.02.219-1.713.219h-1.579l-.432 2.24h-1.839l1.641-8.432h3.531c1.063 0 1.839.276 2.328.833.485.557.636 1.339.437 2.339-.072.396-.213.776-.405 1.131-.193.337-.437.651-.751.937zm5.37.952.724-3.733c.083-.423.052-.713-.095-.871-.14-.151-.448-.229-.916-.229h-1.453l-.937 4.833h-1.828l1.64-8.437h1.823l-.437 2.245h1.625c1.027 0 1.729.177 2.115.531.391.36.505.937.355 1.735l-.767 3.927zm10.124-3.02c-.072.396-.208.776-.405 1.131-.188.337-.437.651-.745.937-.349.328-.765.583-1.224.733-.448.141-1.021.219-1.713.219h-1.573l-.437 2.24h-1.839l1.641-8.432h3.531c1.063 0 1.839.276 2.328.839.485.552.636 1.333.437 2.333zm-3.457-1.844h-1.256l-.687 3.531h1.115c.744 0 1.296-.14 1.656-.421.364-.276.609-.745.735-1.396.124-.625.067-1.068-.168-1.328-.228-.255-.697-.385-1.395-.385z"/></svg>